<svg width="60" height="60" viewBox="0 0 60 60" fill="none" xmlns="http://www.w3.org/2000/svg">
<path d="M58.3358 51.7361L46.7509 40.103C46.393 39.7455 45.9279 39.5162 45.4274 39.4502C44.9269 39.3843 44.4187 39.4855 43.9811 39.7381L40.4372 36.1742C43.865 31.6103 45.4413 25.9107 44.848 20.2254C44.2546 14.5402 41.5358 9.29251 37.2402 5.54135C32.9447 1.79019 27.392 -0.185233 21.7028 0.0136871C16.0135 0.212607 10.6112 2.57106 6.58579 6.61316C2.56043 10.6553 0.211727 16.0801 0.0136308 21.793C-0.184466 27.5059 1.78272 33.0816 5.51835 37.3951C9.25398 41.7086 14.4799 44.4386 20.1416 45.0344C25.8034 45.6302 31.4793 44.0474 36.0243 40.6053L39.5684 44.164C39.3161 44.6045 39.2154 45.1163 39.282 45.6201C39.3487 46.1238 39.5789 46.5915 39.9369 46.9506L51.5218 58.5837C52.4261 59.491 53.6522 60.0005 54.9306 60C56.209 59.9995 57.4348 59.4891 58.3384 58.581C59.242 57.673 59.7494 56.4417 59.7489 55.158C59.7485 53.8743 59.2401 52.6434 58.3358 51.7361V51.7361ZM10.1058 34.9422C7.24495 32.0739 5.46323 28.2982 5.06415 24.2585C4.66506 20.2188 5.67341 16.1652 7.9173 12.7884C10.1612 9.4116 13.5018 6.92066 17.3697 5.74009C21.2377 4.55951 25.3936 4.76235 29.1293 6.31404C32.8651 7.86573 35.9494 10.6702 37.8566 14.2496C39.7637 17.829 40.3758 21.9617 39.5884 25.9435C38.8011 29.9253 36.6631 33.5097 33.5387 36.0858C30.4144 38.662 26.497 40.0705 22.4543 40.0713C20.1581 40.0739 17.8838 39.6223 15.7614 38.7423C13.6391 37.8622 11.7102 36.5709 10.0848 34.9422H10.1058Z" fill="#2B2B2B"/>
</svg>
