<svg width="167" height="24" viewBox="0 0 167 24" fill="none" xmlns="http://www.w3.org/2000/svg">
<path d="M8.25027 18.0698C6.7474 18.0698 5.36074 17.7209 4.09027 17.0233C2.8353 16.3101 1.83597 15.3256 1.09229 14.0698C0.364096 12.7984 0 11.3721 0 9.7907C0 8.2093 0.364096 6.7907 1.09229 5.53488C1.83597 4.27907 2.8353 3.30233 4.09027 2.60465C5.36074 1.89147 6.7474 1.53488 8.25027 1.53488C9.76863 1.53488 11.1553 1.89147 12.4103 2.60465C13.6807 3.30233 14.6801 4.27907 15.4082 5.53488C16.1364 6.7907 16.5005 8.2093 16.5005 9.7907C16.5005 11.3721 16.1364 12.7984 15.4082 14.0698C14.6801 15.3256 13.6807 16.3101 12.4103 17.0233C11.1553 17.7209 9.76863 18.0698 8.25027 18.0698ZM8.25027 15.7674C9.31932 15.7674 10.2722 15.5271 11.1088 15.0465C11.9455 14.5504 12.5962 13.8527 13.061 12.9535C13.5413 12.0388 13.7814 10.9845 13.7814 9.7907C13.7814 8.5969 13.5413 7.55039 13.061 6.65116C12.5962 5.75194 11.9455 5.06201 11.1088 4.5814C10.2722 4.10077 9.31932 3.86047 8.25027 3.86047C7.18122 3.86047 6.22837 4.10077 5.39172 4.5814C4.55508 5.06201 3.8966 5.75194 3.41631 6.65116C2.9515 7.55039 2.7191 8.5969 2.7191 9.7907C2.7191 10.9845 2.9515 12.0388 3.41631 12.9535C3.8966 13.8527 4.55508 14.5504 5.39172 15.0465C6.22837 15.5271 7.18122 15.7674 8.25027 15.7674Z" fill="#293446"/>
<path d="M21.9894 6.97674C22.4387 6.3876 23.0507 5.89147 23.8254 5.48837C24.6 5.08527 25.4754 4.88372 26.4515 4.88372C27.567 4.88372 28.5819 5.16279 29.496 5.72093C30.4256 6.26357 31.1538 7.03101 31.6806 8.02326C32.2073 9.0155 32.4707 10.155 32.4707 11.4419C32.4707 12.7287 32.2073 13.8837 31.6806 14.907C31.1538 15.9147 30.4256 16.7054 29.496 17.2791C28.5819 17.8372 27.567 18.1163 26.4515 18.1163C25.4754 18.1163 24.6078 17.9225 23.8486 17.5349C23.0894 17.1318 22.4697 16.6357 21.9894 16.0465V24H19.34V5.09302H21.9894V6.97674ZM29.7749 11.4419C29.7749 10.5581 29.5889 9.79845 29.2171 9.16279C28.8607 8.51163 28.3804 8.02326 27.7762 7.69767C27.1874 7.35659 26.5522 7.18605 25.8705 7.18605C25.2043 7.18605 24.5691 7.35659 23.9648 7.69767C23.3761 8.03876 22.8958 8.53488 22.5239 9.18605C22.1676 9.83721 21.9894 10.6046 21.9894 11.4884C21.9894 12.3721 22.1676 13.1473 22.5239 13.814C22.8958 14.4651 23.3761 14.9612 23.9648 15.3023C24.5691 15.6434 25.2043 15.814 25.8705 15.814C26.5522 15.814 27.1874 15.6434 27.7762 15.3023C28.3804 14.9457 28.8607 14.4341 29.2171 13.7674C29.5889 13.1008 29.7749 12.3256 29.7749 11.4419Z" fill="#293446"/>
<path d="M47.0594 11.186C47.0594 11.6667 47.0284 12.1008 46.9664 12.4884H37.1823C37.2598 13.5116 37.6394 14.3333 38.3211 14.9535C39.0028 15.5736 39.8394 15.8837 40.831 15.8837C42.2564 15.8837 43.2635 15.2868 43.8522 14.093H46.7108C46.3234 15.2713 45.6185 16.2403 44.5959 17C43.5888 17.7442 42.3339 18.1163 40.831 18.1163C39.607 18.1163 38.507 17.845 37.5309 17.3023C36.5703 16.7442 35.8111 15.969 35.2534 14.9767C34.7111 13.969 34.44 12.8062 34.44 11.4884C34.44 10.1705 34.7034 9.0155 35.2301 8.02326C35.7724 7.0155 36.5238 6.24031 37.4844 5.69767C38.4605 5.15504 39.576 4.88372 40.831 4.88372C42.0395 4.88372 43.1163 5.14729 44.0614 5.67442C45.0065 6.20155 45.7424 6.94574 46.2692 7.90698C46.796 8.85271 47.0594 9.94574 47.0594 11.186ZM44.2938 10.3488C44.2783 9.37209 43.9297 8.58915 43.248 8C42.5663 7.41085 41.7219 7.11628 40.7148 7.11628C39.8007 7.11628 39.0183 7.41085 38.3676 8C37.7168 8.57364 37.3295 9.35659 37.2055 10.3488H44.2938Z" fill="#293446"/>
<path d="M56.3598 4.88372C57.3669 4.88372 58.2655 5.09302 59.0557 5.51163C59.8613 5.93023 60.4888 6.55039 60.9381 7.37209C61.3874 8.1938 61.6121 9.18605 61.6121 10.3488V17.907H58.986V10.7442C58.986 9.5969 58.6993 8.72093 58.1261 8.11628C57.5528 7.49612 56.7704 7.18605 55.7788 7.18605C54.7872 7.18605 53.9971 7.49612 53.4083 8.11628C52.8351 8.72093 52.5484 9.5969 52.5484 10.7442V17.907H49.899V5.09302H52.5484V6.55814C52.9822 6.03101 53.5323 5.62015 54.1985 5.32558C54.8802 5.03101 55.6006 4.88372 56.3598 4.88372Z" fill="#293446"/>
<path d="M75.6588 1.74419V3.90698H71.3594V17.907H68.71V3.90698H64.3873V1.74419H75.6588Z" fill="#293446"/>
<path d="M90.3106 11.186C90.3106 11.6667 90.2797 12.1008 90.2177 12.4884H80.4336C80.511 13.5116 80.8906 14.3333 81.5723 14.9535C82.254 15.5736 83.0907 15.8837 84.0823 15.8837C85.5077 15.8837 86.5147 15.2868 87.1035 14.093H89.962C89.5747 15.2713 88.8697 16.2403 87.8472 17C86.8401 17.7442 85.5851 18.1163 84.0823 18.1163C82.8583 18.1163 81.7583 17.845 80.7822 17.3023C79.8216 16.7442 79.0624 15.969 78.5046 14.9767C77.9624 13.969 77.6912 12.8062 77.6912 11.4884C77.6912 10.1705 77.9546 9.0155 78.4814 8.02326C79.0237 7.0155 79.7751 6.24031 80.7357 5.69767C81.7118 5.15504 82.8273 4.88372 84.0823 4.88372C85.2908 4.88372 86.3676 5.14729 87.3127 5.67442C88.2578 6.20155 88.9937 6.94574 89.5205 7.90698C90.0473 8.85271 90.3106 9.94574 90.3106 11.186ZM87.5451 10.3488C87.5296 9.37209 87.181 8.58915 86.4993 8C85.8175 7.41085 84.9731 7.11628 83.9661 7.11628C83.052 7.11628 82.2695 7.41085 81.6188 8C80.9681 8.57364 80.5808 9.35659 80.4568 10.3488H87.5451Z" fill="#293446"/>
<path d="M95.7997 6.95349C96.187 6.30233 96.6983 5.79845 97.3335 5.44186C97.9843 5.06977 98.7512 4.88372 99.6343 4.88372V7.62791H98.9604C97.9223 7.62791 97.1321 7.89147 96.5898 8.4186C96.0631 8.94574 95.7997 9.86046 95.7997 11.1628V17.907H93.1503V5.09302H95.7997V6.95349Z" fill="#293446"/>
<path d="M117.803 4.88372C118.81 4.88372 119.709 5.09302 120.499 5.51163C121.305 5.93023 121.932 6.55039 122.382 7.37209C122.846 8.1938 123.079 9.18605 123.079 10.3488V17.907H120.453V10.7442C120.453 9.5969 120.166 8.72093 119.593 8.11628C119.019 7.49612 118.237 7.18605 117.245 7.18605C116.254 7.18605 115.464 7.49612 114.875 8.11628C114.302 8.72093 114.015 9.5969 114.015 10.7442V17.907H111.389V10.7442C111.389 9.5969 111.102 8.72093 110.529 8.11628C109.956 7.49612 109.173 7.18605 108.182 7.18605C107.19 7.18605 106.4 7.49612 105.811 8.11628C105.238 8.72093 104.951 9.5969 104.951 10.7442V17.907H102.302V5.09302H104.951V6.55814C105.385 6.03101 105.935 5.62015 106.601 5.32558C107.268 5.03101 107.98 4.88372 108.74 4.88372C109.762 4.88372 110.676 5.10078 111.482 5.53488C112.288 5.96899 112.907 6.5969 113.341 7.4186C113.728 6.64341 114.333 6.03101 115.154 5.58139C115.975 5.11628 116.858 4.88372 117.803 4.88372Z" fill="#293446"/>
<path d="M128.03 3.39535C127.55 3.39535 127.147 3.23256 126.822 2.90698C126.497 2.5814 126.334 2.17829 126.334 1.69767C126.334 1.21705 126.497 0.813953 126.822 0.488373C127.147 0.162791 127.55 0 128.03 0C128.495 0 128.89 0.162791 129.216 0.488373C129.541 0.813953 129.704 1.21705 129.704 1.69767C129.704 2.17829 129.541 2.5814 129.216 2.90698C128.89 3.23256 128.495 3.39535 128.03 3.39535ZM129.332 5.09302V17.907H126.682V5.09302H129.332Z" fill="#293446"/>
<path d="M139.503 4.88372C140.51 4.88372 141.409 5.09302 142.199 5.51163C143.005 5.93023 143.632 6.55039 144.082 7.37209C144.531 8.1938 144.756 9.18605 144.756 10.3488V17.907H142.13V10.7442C142.13 9.5969 141.843 8.72093 141.27 8.11628C140.696 7.49612 139.914 7.18605 138.922 7.18605C137.931 7.18605 137.141 7.49612 136.552 8.11628C135.979 8.72093 135.692 9.5969 135.692 10.7442V17.907H133.043V5.09302H135.692V6.55814C136.126 6.03101 136.676 5.62015 137.342 5.32558C138.024 5.03101 138.744 4.88372 139.503 4.88372Z" fill="#293446"/>
<path d="M147.484 11.4419C147.484 10.155 147.748 9.0155 148.275 8.02326C148.817 7.03101 149.545 6.26357 150.459 5.72093C151.389 5.16279 152.411 4.88372 153.527 4.88372C154.534 4.88372 155.409 5.08527 156.153 5.48837C156.912 5.87597 157.516 6.36434 157.966 6.95349V5.09302H160.638V17.907H157.966V16C157.516 16.6047 156.904 17.1085 156.13 17.5116C155.355 17.9147 154.472 18.1163 153.48 18.1163C152.38 18.1163 151.373 17.8372 150.459 17.2791C149.545 16.7054 148.817 15.9147 148.275 14.907C147.748 13.8837 147.484 12.7287 147.484 11.4419ZM157.966 11.4884C157.966 10.6046 157.78 9.83721 157.408 9.18605C157.052 8.53488 156.579 8.03876 155.99 7.69767C155.402 7.35659 154.766 7.18605 154.085 7.18605C153.403 7.18605 152.768 7.35659 152.179 7.69767C151.59 8.02326 151.11 8.51163 150.738 9.16279C150.382 9.79845 150.204 10.5581 150.204 11.4419C150.204 12.3256 150.382 13.1008 150.738 13.7674C151.11 14.4341 151.59 14.9457 152.179 15.3023C152.783 15.6434 153.418 15.814 154.085 15.814C154.766 15.814 155.402 15.6434 155.99 15.3023C156.579 14.9612 157.052 14.4651 157.408 13.814C157.78 13.1473 157.966 12.3721 157.966 11.4884Z" fill="#293446"/>
<path d="M167 0.697675V17.907H164.351V0.697675H167Z" fill="#293446"/>
</svg>
